# Wavefront OBJ file
# Exported by Misfit Model 3D 1.3.7
# Sun Dec 12 22:33:06 2010

# 36 Vertices
v 0.938396 0.297724 -0.316133
v 0.960585 0.297724 -0.288189
v -0.928937 0.297724 -0.316133
v -0.940645 0.297724 -0.289698
v -0.928937 -0.297724 -0.316133
v -0.940645 -0.297724 -0.289698
v 0.938396 -0.297724 -0.316133
v 0.960585 -0.297724 -0.288189
v 0.999886 0.297724 -0.282525
v -0.996183 0.297724 -0.284528
v -0.996183 -0.297724 -0.284528
v 0.999886 -0.297724 -0.282525
v 1.018632 0.136994 0.101599
v -1.001253 0.136994 0.101599
v -1.001253 -0.136994 0.101599
v 1.018632 -0.136994 0.101599
v -0.995923 0.203104 -0.214002
v -0.995923 -0.203104 -0.214002
v -1.005644 0.203104 -0.208568
v -1.005644 -0.203104 -0.208568
v 1.000432 0.203104 -0.220282
v 1.000432 -0.203104 -0.220282
v 1.018949 0.203104 -0.213004
v 1.018949 -0.203104 -0.213004
v 0.20394 0.297724 -0.316133
v 0.20394 0.297724 -0.28879
v 0.20394 -0.297724 -0.316133
v 0.20394 -0.297724 -0.28879
v 0.20394 0.297724 -0.283324
v 0.20394 -0.297724 -0.283324
v -0.188552 0.297724 -0.316133
v -0.188552 0.297724 -0.289111
v -0.188552 -0.297724 -0.316133
v -0.188552 -0.297724 -0.289111
v -0.188552 0.297724 -0.28373
v -0.188552 -0.297724 -0.28373

# 204 Texture Coordinates
vt 0.406181 0.772575
vt 0.611649 0.772385
vt 0.987 0.772011
vt 0.406181 0.772575
vt 0.987 0.772011
vt 0.985825 0.79718
vt 0.406181 0.772575
vt 0.985825 0.79718
vt 0.028373 0.794243
vt 0.406181 0.772575
vt 0.028373 0.794243
vt 0.028626 0.772949
vt 0.028373 0.794243
vt 0.019708 0.797661
vt 0.019858 0.93963
vt 0.028373 0.794243
vt 0.019858 0.93963
vt 0.988327 0.937027
vt 0.028373 0.794243
vt 0.988327 0.937027
vt 0.990372 0.799728
vt 0.028373 0.794243
vt 0.990372 0.799728
vt 0.985825 0.79718
vt 0.985825 0.79718
vt 0.990372 0.799728
vt 0.988327 0.937027
vt 0.985825 0.79718
vt 0.988327 0.937027
vt 0.019858 0.93963
vt 0.985825 0.79718
vt 0.019858 0.93963
vt 0.019708 0.797661
vt 0.985825 0.79718
vt 0.019708 0.797661
vt 0.028373 0.794243
vt 0.985825 0.79718
vt 0.987 0.772011
vt 0.611649 0.772385
vt 0.985825 0.79718
vt 0.611649 0.772385
vt 0.406181 0.772575
vt 0.985825 0.79718
vt 0.406181 0.772575
vt 0.028626 0.772949
vt 0.985825 0.79718
vt 0.028626 0.772949
vt 0.028373 0.794243
vt 0.610565 0.749405
vt 0.954483 0.749405
vt 0.96106 0.769577
vt 0.610565 0.749405
vt 0.96106 0.769577
vt 0.611649 0.769859
vt 0.842743 0.7528
vt 0.842743 0.763355
vt 0.723816 0.763355
vt 0.842743 0.7528
vt 0.723816 0.763355
vt 0.723816 0.7528
vt 0.611649 0.769859
vt 0.96106 0.769577
vt 0.954483 0.749405
vt 0.611649 0.769859
vt 0.954483 0.749405
vt 0.610565 0.749405
vt 0.723816 0.7528
vt 0.723816 0.763958
vt 0.842743 0.763958
vt 0.723816 0.7528
vt 0.842743 0.763958
vt 0.842743 0.7528
vt 0.924302 0.83211
vt 0.924302 0.889446
vt 0.078926 0.889446
vt 0.924302 0.83211
vt 0.078926 0.889446
vt 0.078926 0.83211
vt 0.419896 0.798475
vt 0.419896 0.923081
vt 0.112506 0.923081
vt 0.419896 0.798475
vt 0.112506 0.923081
vt 0.112506 0.798475
vt 0.611649 0.769859
vt 0.96106 0.769577
vt 0.987 0.772011
vt 0.611649 0.769859
vt 0.987 0.772011
vt 0.611649 0.772385
vt 0.842743 0.763355
vt 0.842743 0.765419
vt 0.723816 0.765419
vt 0.842743 0.763355
vt 0.723816 0.765419
vt 0.723816 0.763355
vt 0.406181 0.770012
vt 0.048107 0.770294
vt 0.028626 0.772949
vt 0.406181 0.770012
vt 0.028626 0.772949
vt 0.406181 0.772575
vt 0.723816 0.763958
vt 0.723816 0.766212
vt 0.842743 0.766212
vt 0.723816 0.763958
vt 0.842743 0.766212
vt 0.842743 0.763958
vt 0.842743 0.765419
vt 0.823837 0.793591
vt 0.742706 0.793591
vt 0.842743 0.765419
vt 0.742706 0.793591
vt 0.723816 0.765419
vt 0.742706 0.793995
vt 0.75592 0.919643
vt 0.810623 0.919643
vt 0.742706 0.793995
vt 0.810623 0.919643
vt 0.823837 0.793995
vt 0.823837 0.793591
vt 0.823837 0.795757
vt 0.742706 0.795757
vt 0.823837 0.793591
vt 0.742706 0.795757
vt 0.742706 0.793591
vt 0.823837 0.795757
vt 0.810623 0.919643
vt 0.75592 0.919643
vt 0.823837 0.795757
vt 0.75592 0.919643
vt 0.742706 0.795757
vt 0.823837 0.791073
vt 0.842743 0.766212
vt 0.723816 0.766212
vt 0.823837 0.791073
vt 0.723816 0.766212
vt 0.742706 0.791073
vt 0.823837 0.793995
vt 0.823837 0.791073
vt 0.742706 0.791073
vt 0.823837 0.793995
vt 0.742706 0.791073
vt 0.742706 0.793995
vt 0.406181 0.770012
vt 0.048107 0.770294
vt 0.057397 0.749405
vt 0.406181 0.770012
vt 0.057397 0.749405
vt 0.40509 0.749405
vt 0.40509 0.749405
vt 0.057397 0.749405
vt 0.048107 0.770294
vt 0.40509 0.749405
vt 0.048107 0.770294
vt 0.406181 0.770012
vt 0.584165 0.798475
vt 0.894036 0.798475
vt 0.894036 0.923081
vt 0.584165 0.798475
vt 0.894036 0.923081
vt 0.584165 0.923081
vt 0.406181 0.772575
vt 0.028626 0.772949
vt 0.048107 0.770294
vt 0.406181 0.772575
vt 0.048107 0.770294
vt 0.406181 0.770012
vt 0.611649 0.772385
vt 0.987 0.772011
vt 0.96106 0.769577
vt 0.611649 0.772385
vt 0.96106 0.769577
vt 0.611649 0.769859
vt 0.561784 0.861778
vt 0.561784 0.86403
vt 0.437178 0.86403
vt 0.561784 0.861778
vt 0.437178 0.86403
vt 0.437178 0.861778
vt 0.437178 0.861778
vt 0.437178 0.850469
vt 0.561784 0.850469
vt 0.437178 0.861778
vt 0.561784 0.850469
vt 0.561784 0.861778
vt 0.419896 0.798475
vt 0.584165 0.798475
vt 0.584165 0.923081
vt 0.419896 0.798475
vt 0.584165 0.923081
vt 0.419896 0.923081
vt 0.561784 0.861913
vt 0.561784 0.8642
vt 0.437178 0.8642
vt 0.561784 0.861913
vt 0.437178 0.8642
vt 0.437178 0.861913
vt 0.561784 0.850469
vt 0.561784 0.861913
vt 0.437178 0.861913
vt 0.561784 0.850469
vt 0.437178 0.861913
vt 0.437178 0.850469

# 204 Vertex Normals
vn 0.000177 0.88677 0.462211
vn 0.000001 1.0 -0.000399
vn -0.000218 0.9761 0.217322
vn 0.000177 0.88677 0.462211
vn -0.000218 0.9761 0.217322
vn 0.020935 0.915272 0.402291
vn 0.000177 0.88677 0.462211
vn 0.020935 0.915272 0.402291
vn 0.000649 0.787666 0.616102
vn 0.000177 0.88677 0.462211
vn 0.000649 0.787666 0.616102
vn -0.000476 0.880219 0.474568
vn -0.016276 -0.951337 0.307723
vn -0.080534 -0.975464 0.204901
vn -0.025968 -0.630394 0.775841
vn -0.016276 -0.951337 0.307723
vn -0.025968 -0.630394 0.775841
vn 0.000505 -0.811501 0.584351
vn -0.016276 -0.951337 0.307723
vn 0.000505 -0.811501 0.584351
vn 0.000612 -0.994493 0.104799
vn -0.016276 -0.951337 0.307723
vn 0.000612 -0.994493 0.104799
vn 0.000043 -0.717977 0.696067
vn 0.020935 0.915272 0.402291
vn 0.114886 0.971885 0.205525
vn 0.037024 0.62862 0.776831
vn 0.020935 0.915272 0.402291
vn 0.037024 0.62862 0.776831
vn -0.000042 0.811268 0.584674
vn 0.020935 0.915272 0.402291
vn -0.000042 0.811268 0.584674
vn -0.000051 0.994642 0.103377
vn 0.020935 0.915272 0.402291
vn -0.000051 0.994642 0.103377
vn 0.000649 0.787666 0.616102
vn 0.000043 -0.717977 0.696067
vn -0.000443 -0.89376 0.448544
vn -0.000454 -0.893789 0.448488
vn 0.000043 -0.717977 0.696067
vn -0.000454 -0.893789 0.448488
vn -0.000601 -0.807557 0.589789
vn 0.000043 -0.717977 0.696067
vn -0.000601 -0.807557 0.589789
vn 0.000514 -0.887139 0.461502
vn 0.000043 -0.717977 0.696067
vn 0.000514 -0.887139 0.461502
vn -0.016276 -0.951337 0.307723
vn 0.0 1.0 0.0
vn 0.0 1.0 0.0
vn 0.0 1.0 0.0
vn 0.0 1.0 0.0
vn 0.0 1.0 0.0
vn 0.0 1.0 0.0
vn -0.710743 0.0 -0.703452
vn -0.41709 0.0 -0.908865
vn -0.728717 0.0 -0.684815
vn -0.710743 0.0 -0.703452
vn -0.728717 0.0 -0.684815
vn -0.355372 0.0 -0.934725
vn -0.0 -1.0 -0.0
vn -0.0 -1.0 -0.0
vn -0.0 -1.0 -0.0
vn -0.0 -1.0 -0.0
vn -0.0 -1.0 -0.0
vn -0.0 -1.0 0.0
vn 0.434826 -0.0 -0.900514
vn 0.379916 0.0 -0.925021
vn 0.607665 0.0 -0.794193
vn 0.434826 -0.0 -0.900514
vn 0.607665 0.0 -0.794193
vn 0.434826 0.0 -0.900514
vn 0.037024 0.62862 0.776831
vn 0.000505 -0.811501 0.584351
vn -0.025968 -0.630394 0.775841
vn 0.037024 0.62862 0.776831
vn -0.025968 -0.630394 0.775841
vn -0.000042 0.811268 0.584674
vn 0.0 -0.0 -1.0
vn 0.0 -0.0 -1.0
vn 0.434826 -0.0 -0.900514
vn 0.0 -0.0 -1.0
vn 0.434826 -0.0 -0.900514
vn 0.434826 0.0 -0.900514
vn 0.0 1.0 0.0
vn 0.0 1.0 0.0
vn -0.000218 0.9761 0.217322
vn 0.0 1.0 0.0
vn -0.000218 0.9761 0.217322
vn 0.000001 1.0 -0.000399
vn -0.41709 0.0 -0.908865
vn -0.90423 0.0 -0.427047
vn -0.51219 0.0 -0.858872
vn -0.41709 0.0 -0.908865
vn -0.51219 0.0 -0.858872
vn -0.728717 0.0 -0.684815
vn -0.0 -1.0 0.0
vn -0.0 -1.0 0.0
vn 0.000514 -0.887139 0.461502
vn -0.0 -1.0 0.0
vn 0.000514 -0.887139 0.461502
vn -0.000601 -0.807557 0.589789
vn 0.379916 0.0 -0.925021
vn 0.904973 0.0 -0.42547
vn 0.542861 0.0 -0.839822
vn 0.379916 0.0 -0.925021
vn 0.542861 0.0 -0.839822
vn 0.607665 0.0 -0.794193
vn -0.90423 0.0 -0.427047
vn -0.750089 0.0 -0.661336
vn -0.94448 0.0 -0.328569
vn -0.90423 0.0 -0.427047
vn -0.94448 0.0 -0.328569
vn -0.51219 0.0 -0.858872
vn 0.930851 0.0 -0.365398
vn 1.0 0.0 0.001007
vn 1.0 0.0 0.001008
vn 0.930851 0.0 -0.365398
vn 1.0 0.0 0.001008
vn 0.681319 0.0 -0.731986
vn -0.750089 0.0 -0.661336
vn -0.946919 0.0 -0.321472
vn -0.752047 0.0 -0.659109
vn -0.750089 0.0 -0.661336
vn -0.752047 0.0 -0.659109
vn -0.94448 0.0 -0.328569
vn -0.946919 0.0 -0.321472
vn -0.9999 0.0 0.014155
vn -0.9999 0.0 0.014155
vn -0.946919 0.0 -0.321472
vn -0.9999 0.0 0.014155
vn -0.752047 0.0 -0.659109
vn 0.928213 0.0 -0.37205
vn 0.542861 0.0 -0.839822
vn 0.904973 0.0 -0.42547
vn 0.928213 0.0 -0.37205
vn 0.904973 0.0 -0.42547
vn 0.679395 0.0 -0.733773
vn 0.681319 0.0 -0.731986
vn 0.928213 0.0 -0.37205
vn 0.679395 0.0 -0.733773
vn 0.681319 0.0 -0.731986
vn 0.679395 0.0 -0.733773
vn 0.930851 0.0 -0.365398
vn 0.0 1.0 -0.0
vn 0.0 1.0 -0.0
vn 0.0 1.0 -0.0
vn 0.0 1.0 -0.0
vn 0.0 1.0 -0.0
vn 0.0 1.0 0.0
vn -0.0 -1.0 0.0
vn -0.0 -1.0 0.0
vn -0.0 -1.0 0.0
vn -0.0 -1.0 0.0
vn -0.0 -1.0 0.0
vn -0.0 -1.0 0.0
vn 0.0 0.0 -1.0
vn -0.710743 0.0 -0.703452
vn -0.355372 0.0 -0.934725
vn 0.0 0.0 -1.0
vn -0.355372 0.0 -0.934725
vn 0.0 0.0 -1.0
vn 0.000177 0.88677 0.462211
vn -0.000476 0.880219 0.474568
vn 0.0 1.0 -0.0
vn 0.000177 0.88677 0.462211
vn 0.0 1.0 -0.0
vn 0.0 1.0 -0.0
vn -0.000454 -0.893789 0.448488
vn -0.000443 -0.89376 0.448544
vn -0.0 -1.0 -0.0
vn -0.000454 -0.893789 0.448488
vn -0.0 -1.0 -0.0
vn -0.0 -1.0 -0.0
vn 1.0 -0.0 0.0
vn 1.0 -0.0 0.0
vn 1.0 -0.0 0.0
vn 1.0 -0.0 0.0
vn 1.0 -0.0 0.0
vn 1.0 -0.0 0.0
vn 1.0 -0.0 0.0
vn 1.0 -0.0 0.0
vn 1.0 -0.0 0.0
vn 1.0 -0.0 0.0
vn 1.0 -0.0 0.0
vn 1.0 -0.0 0.0
vn 0.001034 0.0 -0.999999
vn 0.001034 0.0 -0.999999
vn 0.001034 0.0 -0.999999
vn 0.001034 0.0 -0.999999
vn 0.001034 0.0 -0.999999
vn 0.001034 -0.0 -0.999999
vn -1.0 0.0 0.0
vn -1.0 0.0 0.0
vn -1.0 0.0 0.0
vn -1.0 0.0 0.0
vn -1.0 0.0 0.0
vn -1.0 0.0 0.0
vn -1.0 0.0 0.0
vn -1.0 0.0 0.0
vn -1.0 0.0 0.0
vn -1.0 0.0 0.0
vn -1.0 0.0 0.0
vn -1.0 0.0 0.0

# Cube, 68 grouped triangles

o Cube
g Cube

f 29/1/1 35/2/2 10/3/3
f 29/4/4 10/5/5 17/6/6
f 29/7/7 17/8/8 21/9/9
f 29/10/10 21/11/11 9/12/12
f 22/13/13 24/14/14 16/15/15
f 22/16/16 16/17/17 15/18/18
f 22/19/19 15/20/20 20/21/21
f 22/22/22 20/23/23 18/24/24
f 17/25/25 19/26/26 14/27/27
f 17/28/28 14/29/29 13/30/30
f 17/31/31 13/32/32 23/33/33
f 17/34/34 23/35/35 21/36/36
f 18/37/37 11/38/38 36/39/39
f 18/40/40 36/41/41 30/42/42
f 18/43/43 30/44/44 12/45/45
f 18/46/46 12/47/47 22/48/48
f 31/49/49 3/50/50 4/51/51
f 31/52/52 4/53/53 32/54/54
f 5/55/55 6/56/56 4/57/57
f 5/58/58 4/59/59 3/60/60
f 34/61/61 6/62/62 5/63/63
f 34/64/64 5/65/65 33/66/66
f 1/67/67 2/68/68 8/69/69
f 1/70/70 8/71/71 7/72/72
f 14/73/73 15/74/74 16/75/75
f 14/76/76 16/77/77 13/78/78
f 27/79/79 25/80/80 1/81/81
f 27/82/82 1/83/83 7/84/84
f 32/85/85 4/86/86 10/87/87
f 32/88/88 10/89/89 35/90/90
f 6/91/91 11/92/92 10/93/93
f 6/94/94 10/95/95 4/96/96
f 28/97/97 8/98/98 12/99/99
f 28/100/100 12/101/101 30/102/102
f 2/103/103 9/104/104 12/105/105
f 2/106/106 12/107/107 8/108/108
f 11/109/109 18/110/110 17/111/111
f 11/112/112 17/113/113 10/114/114
f 23/115/115 13/116/116 16/117/117
f 23/118/118 16/119/119 24/120/120
f 18/121/121 20/122/122 19/123/123
f 18/124/124 19/125/125 17/126/126
f 20/127/127 15/128/128 14/129/129
f 20/130/130 14/131/131 19/132/132
f 22/133/133 12/134/134 9/135/135
f 22/136/136 9/137/137 21/138/138
f 24/139/139 22/140/140 21/141/141
f 24/142/142 21/143/143 23/144/144
f 26/145/145 2/146/146 1/147/147
f 26/148/148 1/149/149 25/150/150
f 27/151/151 7/152/152 8/153/153
f 27/154/154 8/155/155 28/156/156
f 33/157/157 5/158/158 3/159/159
f 33/160/160 3/161/161 31/162/162
f 29/163/163 9/164/164 2/165/165
f 29/166/166 2/167/167 26/168/168
f 36/169/169 11/170/170 6/171/171
f 36/172/172 6/173/173 34/174/174
f 32/175/175 35/176/176 36/177/177
f 32/178/178 36/179/179 34/180/180
f 34/181/181 33/182/182 31/183/183
f 34/184/184 31/185/185 32/186/186
f 30/187/187 36/188/188 35/189/189
f 30/190/190 35/191/191 29/192/192
f 28/193/193 30/194/194 29/195/195
f 28/196/196 29/197/197 26/198/198
f 27/199/199 28/200/200 26/201/201
f 27/202/202 26/203/203 25/204/204
